<?xml version="1.0" encoding="utf-8"?>
<!-- Generator: Adobe Illustrator 16.0.0, SVG Export Plug-In . SVG Version: 6.00 Build 0)  -->
<!DOCTYPE svg PUBLIC "-//W3C//DTD SVG 1.1//EN" "http://www.w3.org/Graphics/SVG/1.1/DTD/svg11.dtd">
<svg version="1.1" id="レイヤー_1" xmlns="http://www.w3.org/2000/svg" xmlns:xlink="http://www.w3.org/1999/xlink" x="0px"
	 y="0px" width="230px" height="230px" viewBox="0 0 230 230" enable-background="new 0 0 230 230" xml:space="preserve">
<g>
	<path fill="#FFFFFF" d="M203.687,154.187c-28.819,16.631-57.15,32.981-85.812,49.521c0-3.201,0.119-5.87-0.041-8.522
		c-0.109-1.82,0.511-2.818,2.11-3.723c9.347-5.284,18.625-10.69,27.926-16.056c17.954-10.356,35.913-20.704,53.845-31.098
		c0.777-0.451,1.823-1.292,1.869-2.006c0.202-3.213,0.088-6.445,0.088-10.205c-28.771,16.605-57.109,32.961-85.568,49.385
		c-1.2-10.232-1.2-10.232,7.037-14.995c0.36-0.209,0.725-0.41,1.085-0.618c25.158-14.525,50.319-29.046,75.461-43.601
		c0.799-0.462,1.943-1.242,1.988-1.936c0.211-3.27,0.094-6.561,0.094-10.323c-28.863,16.658-57.205,33.015-85.894,49.573
		c0-2.939,0.187-5.367-0.052-7.753c-0.244-2.434,0.729-3.652,2.8-4.84c26.934-15.446,53.811-30.99,80.685-46.54
		c0.878-0.508,2.188-1.291,2.243-2.024c0.245-3.268,0.106-6.564,0.106-10.382c-28.781,16.609-57.063,32.93-85.782,49.504
		c0-3.102,0.129-5.736-0.043-8.352c-0.127-1.923,0.552-2.932,2.236-3.898c25.411-14.587,50.778-29.25,76.142-43.92
		c2.499-1.445,5.902-2.521,7.081-4.731c1.254-2.349,0.488-5.852,0.325-8.836c-0.052-0.938-0.779-2.215-1.58-2.68
		c-27.571-16.006-55.187-31.935-82.808-47.854c-0.532-0.307-1.382-0.711-1.778-0.5c-3.016,1.607-5.956,3.358-9.21,5.231
		c28.794,16.628,57.093,32.971,85.78,49.537c-2.676,1.548-5.018,2.763-7.202,4.215c-1.58,1.051-2.785,1.015-4.466,0.04
		c-27.14-15.755-54.324-31.432-81.51-47.107c-0.751-0.433-1.881-1.145-2.407-0.88c-3.065,1.544-6.003,3.342-9.265,5.216
		c28.791,16.625,57.125,32.988,85.775,49.532c-3.009,1.738-5.479,3.292-8.078,4.587c-0.768,0.382-2.086,0.372-2.836-0.038
		c-4.674-2.553-9.259-5.27-13.872-7.934c-22.851-13.195-45.698-26.396-68.563-39.566c-0.727-0.419-1.861-0.992-2.412-0.713
		c-3.003,1.516-5.883,3.276-9.121,5.132c28.792,16.629,57.15,33.008,85.788,49.548c-2.618,1.514-4.949,2.658-7.045,4.137
		c-1.782,1.257-3.108,0.992-4.904-0.05C116.834,81.95,89.722,66.313,62.602,50.691c-0.783-0.451-2.014-1.021-2.627-0.715
		c-2.948,1.468-5.755,3.217-8.982,5.081c28.755,16.605,57.109,32.979,85.762,49.525c-2.479,1.441-4.712,2.545-6.722,3.966
		c-1.878,1.328-3.338,1.229-5.338,0.066C99.435,93.931,74.117,79.35,48.811,64.748c-2.377-1.372-4.785-3.787-7.161-3.766
		c-2.486,0.022-4.888,2.538-7.444,3.705c-1.923,0.878-2.291,2.172-2.286,4.121c0.061,23.327,0.039,46.654,0.039,69.981
		c0,8.165-0.022,16.329,0.036,24.493c0.006,0.803,0.266,1.979,0.823,2.34c2.695,1.746,5.533,3.271,8.783,5.142
		c0-33.23,0-65.952,0-99.07c2.639,1.517,4.801,2.919,7.103,4.032c1.813,0.876,2.401,2.026,2.393,4.055
		c-0.083,20.494-0.05,40.989-0.05,61.483c0,10.914-0.018,21.828,0.035,32.741c0.004,0.887,0.224,2.188,0.819,2.587
		c2.665,1.782,5.501,3.307,8.762,5.208c0-33.271,0-65.998,0-99.098c2.711,1.561,4.953,2.996,7.324,4.167
		c1.649,0.814,2.157,1.867,2.15,3.693c-0.071,19.245-0.044,38.489-0.044,57.734c0,12.247-0.016,24.493,0.034,36.74
		c0.003,0.896,0.2,2.218,0.792,2.611c2.674,1.775,5.522,3.288,8.824,5.193c0-33.286,0-66.025,0-99.117
		c2.812,1.612,5.139,3.071,7.582,4.301c1.503,0.757,1.873,1.773,1.863,3.367c-0.065,10.581-0.034,21.161-0.034,31.742
		c0,20.91-0.009,41.821,0.029,62.732c0.001,0.919,0.122,2.29,0.702,2.678c2.727,1.82,5.634,3.369,9.009,5.324
		c0-33.31,0-66.022,0-99.091c2.66,1.53,4.824,2.94,7.132,4.05c1.848,0.888,2.357,2.109,2.353,4.105
		c-0.064,29.159-0.048,58.317-0.038,87.477c0.001,2.91-0.883,6.396,0.404,8.573c1.342,2.27,4.861,3.211,7.342,4.863
		c1.303,0.867,2.318,0.737,3.612-0.029c5.945-3.518,11.946-6.943,17.929-10.397c21.337-12.321,42.681-24.63,63.987-37.003
		c0.869-0.505,1.909-1.57,1.979-2.444C203.836,160.915,203.687,157.829,203.687,154.187z"/>
	<path fill-rule="evenodd" clip-rule="evenodd" fill="#FFFFFF" d="M203.687,154.187c0,3.643,0.149,6.729-0.094,9.784
		c-0.069,0.874-1.109,1.939-1.979,2.444c-21.307,12.373-42.65,24.682-63.987,37.003c-5.982,3.454-11.983,6.88-17.929,10.397
		c-1.294,0.767-2.31,0.896-3.612,0.029c-2.48-1.652-6-2.594-7.342-4.863c-1.287-2.178-0.403-5.663-0.404-8.573
		c-0.01-29.159-0.026-58.317,0.038-87.477c0.004-1.996-0.504-3.217-2.353-4.105c-2.308-1.11-4.472-2.52-7.132-4.05
		c0,33.068,0,65.781,0,99.091c-3.375-1.955-6.282-3.504-9.009-5.324c-0.581-0.388-0.701-1.759-0.702-2.678
		c-0.038-20.911-0.029-41.822-0.029-62.732c0-10.581-0.032-21.161,0.034-31.742c0.01-1.593-0.36-2.61-1.863-3.367
		c-2.443-1.23-4.77-2.689-7.582-4.301c0,33.092,0,65.831,0,99.117c-3.302-1.905-6.15-3.418-8.824-5.193
		c-0.592-0.394-0.788-1.716-0.792-2.611c-0.05-12.247-0.034-24.493-0.034-36.74c0-19.245-0.027-38.49,0.044-57.734
		c0.006-1.826-0.501-2.879-2.15-3.693c-2.371-1.171-4.612-2.605-7.324-4.167c0,33.1,0,65.826,0,99.098
		c-3.26-1.901-6.097-3.426-8.762-5.208c-0.595-0.398-0.814-1.7-0.819-2.587c-0.053-10.913-0.035-21.827-0.035-32.741
		c0-20.494-0.032-40.989,0.05-61.483c0.008-2.029-0.58-3.179-2.393-4.055c-2.302-1.113-4.464-2.516-7.103-4.032
		c0,33.118,0,65.84,0,99.07c-3.25-1.87-6.087-3.396-8.783-5.142c-0.558-0.361-0.817-1.537-0.823-2.34
		c-0.059-8.164-0.036-16.328-0.036-24.493c0-23.327,0.022-46.654-0.039-69.981c-0.005-1.949,0.362-3.243,2.286-4.121
		c2.556-1.167,4.958-3.683,7.444-3.705c2.376-0.021,4.784,2.394,7.161,3.766c25.306,14.602,50.624,29.183,75.883,43.866
		c2,1.163,3.46,1.262,5.338-0.066c2.01-1.42,4.243-2.524,6.722-3.966c-28.653-16.546-57.007-32.92-85.762-49.525
		c3.228-1.864,6.035-3.613,8.982-5.081c0.614-0.306,1.845,0.265,2.627,0.715C89.722,66.313,116.834,81.95,143.9,97.664
		c1.796,1.042,3.122,1.308,4.904,0.05c2.096-1.479,4.427-2.623,7.045-4.137c-28.638-16.541-56.996-32.919-85.788-49.548
		c3.237-1.856,6.118-3.617,9.121-5.132c0.551-0.278,1.685,0.294,2.412,0.713c22.865,13.171,45.712,26.371,68.563,39.566
		c4.613,2.664,9.198,5.381,13.872,7.934c0.75,0.41,2.068,0.42,2.836,0.038c2.6-1.295,5.069-2.849,8.078-4.587
		c-28.65-16.544-56.984-32.906-85.775-49.532c3.262-1.874,6.199-3.671,9.265-5.216c0.526-0.265,1.656,0.447,2.407,0.88
		c27.186,15.675,54.371,31.352,81.51,47.107c1.681,0.976,2.886,1.012,4.466-0.04c2.185-1.452,4.526-2.667,7.202-4.215
		c-28.687-16.566-56.985-32.908-85.78-49.537c3.255-1.874,6.195-3.624,9.21-5.231c0.396-0.211,1.246,0.193,1.778,0.5
		c27.621,15.92,55.236,31.849,82.808,47.854c0.801,0.464,1.528,1.742,1.58,2.68c0.163,2.984,0.929,6.487-0.325,8.836
		c-1.179,2.21-4.582,3.286-7.081,4.731c-25.363,14.67-50.73,29.333-76.142,43.92c-1.685,0.967-2.363,1.976-2.236,3.898
		c0.172,2.615,0.043,5.25,0.043,8.352c28.719-16.574,57.001-32.895,85.782-49.504c0,3.818,0.139,7.115-0.106,10.382
		c-0.055,0.733-1.365,1.516-2.243,2.024c-26.874,15.549-53.751,31.093-80.685,46.54c-2.07,1.188-3.044,2.406-2.8,4.84
		c0.238,2.386,0.052,4.813,0.052,7.753c28.688-16.558,57.03-32.915,85.894-49.573c0,3.762,0.117,7.053-0.094,10.323
		c-0.045,0.693-1.189,1.474-1.988,1.936c-25.142,14.555-50.303,29.075-75.461,43.601c-0.36,0.208-0.725,0.409-1.085,0.618
		c-8.237,4.763-8.237,4.763-7.037,14.995c28.459-16.424,56.797-32.779,85.568-49.385c0,3.76,0.114,6.992-0.088,10.205
		c-0.046,0.714-1.092,1.555-1.869,2.006c-17.932,10.394-35.891,20.741-53.845,31.098c-9.301,5.365-18.579,10.771-27.926,16.056
		c-1.6,0.904-2.22,1.902-2.11,3.723c0.16,2.652,0.041,5.321,0.041,8.522C146.536,187.168,174.867,170.817,203.687,154.187z"/>
</g>
</svg>
