<?xml version="1.0" encoding="utf-8"?>
<!-- Generator: Adobe Illustrator 16.0.0, SVG Export Plug-In . SVG Version: 6.00 Build 0)  -->
<!DOCTYPE svg PUBLIC "-//W3C//DTD SVG 1.1//EN" "http://www.w3.org/Graphics/SVG/1.1/DTD/svg11.dtd">
<svg version="1.1" id="レイヤー_1" xmlns="http://www.w3.org/2000/svg" xmlns:xlink="http://www.w3.org/1999/xlink" x="0px"
	 y="0px" width="230px" height="230px" viewBox="0 0 230 230" enable-background="new 0 0 230 230" xml:space="preserve">
<g>
	<path fill="none" d="M137.557,101.268c-1.27,0.063-2.277,0.154-3.285,0.154c-16.163,0.011-32.326-0.034-48.486,0.074
		c-1.537,0.01-3.462,0.574-4.533,1.512c-7.497,6.584-14.866,13.296-22.134,20.092c-0.98,0.913-1.639,2.535-1.641,3.831
		c-0.095,26.346-0.045,52.693-0.117,79.039c-0.005,2.233,0.822,2.823,3.181,2.805c11.576-0.093,23.154,0.029,34.731-0.125
		c1.609-0.022,3.576-0.799,4.743-1.825c7.253-6.369,14.412-12.83,21.372-19.459c1.322-1.259,2.227-3.387,2.288-5.145
		c0.253-7.177,0.197-14.366,0.054-21.552c-0.047-2.384,0.503-3.651,3.455-3.783c2.374-0.104,4.751-0.683,7.071-1.24
		c19.926-4.781,35.127-14.685,41.867-33.085c5.088-13.891,3.377-27.635-1.867-41.312c-11.513-30.005-34.562-47.324-69.119-51.004
		c-14.953-1.592-30.195-0.902-45.305-1.317c-2.46-0.066-2.442,1.228-2.438,2.804c0.025,9.373-0.108,18.746,0.121,28.113
		c0.043,1.738,1.051,3.837,2.382,5.102c6.808,6.474,13.922,12.681,20.801,19.093c1.76,1.642,3.597,2.228,6.067,2.205
		c9.396-0.09,18.821-0.364,28.187,0.151c4.775,0.263,9.708,1.529,14.097,3.303C134.112,91.744,136.739,95.969,137.557,101.268z"/>
	<path fill="#FFFFFF" d="M137.557,101.268c-0.817-5.299-3.444-9.524-8.509-11.568c-4.389-1.774-9.322-3.041-14.097-3.303
		c-9.367-0.517-18.791-0.242-28.187-0.151c-2.471,0.022-4.307-0.564-6.067-2.206c-6.878-6.412-13.993-12.619-20.801-19.094
		c-1.331-1.266-2.339-3.364-2.382-5.102c-0.229-9.367-0.095-18.741-0.121-28.113c-0.003-1.575-0.021-2.87,2.438-2.804
		c15.11,0.416,30.352-0.276,45.305,1.317c34.555,3.68,57.606,20.999,69.119,51.004c5.244,13.677,6.955,27.421,1.867,41.311
		c-6.74,18.401-21.943,28.305-41.867,33.085c-2.32,0.558-4.697,1.138-7.071,1.24c-2.952,0.133-3.5,1.399-3.455,3.784
		c0.142,7.186,0.198,14.376-0.054,21.552c-0.062,1.758-0.966,3.886-2.288,5.145c-6.959,6.629-14.119,13.091-21.372,19.46
		c-1.167,1.025-3.133,1.801-4.742,1.824c-11.577,0.154-23.155,0.032-34.732,0.125c-2.359,0.018-3.186-0.571-3.181-2.804
		c0.071-26.346,0.022-52.693,0.117-79.04c0.002-1.296,0.661-2.917,1.641-3.831c7.268-6.796,14.636-13.507,22.134-20.092
		c1.07-0.938,2.996-1.502,4.533-1.512c16.161-0.107,32.323-0.064,48.486-0.074C135.279,101.421,136.288,101.331,137.557,101.268z
		 M92.17,152.54c4.1,0,7.639-0.03,11.177,0.009c10.332,0.113,20.622-0.009,30.719-2.465c25.111-6.112,39.541-23.343,38.99-46.682
		c-0.541-22.977-15.31-38.997-40.827-44.125c-13.595-2.732-27.418-1.222-41.14-1.6c-2.078-0.057-2.088,1.132-2.083,2.469
		c0.016,5.729,0.177,11.465-0.069,17.187c-0.122,2.821,0.9,3.448,3.878,3.453c9.502,0.018,19.078-0.244,28.49,0.713
		c12.783,1.299,20.906,9.045,22.496,19.942c1.65,11.321-3.701,21.271-14.667,25.406c-4.947,1.866-10.598,2.858-15.971,2.996
		c-15.238,0.394-30.496,0.14-45.745,0.146c-1.218,0-2.437,0.095-3.672,0.147c0,24.499,0,48.688,0,73.103
		c8.535,0,16.779-0.109,25.016,0.062c2.793,0.055,3.478-0.772,3.46-3.19c-0.105-14.477-0.052-28.956-0.052-43.438
		C92.17,155.444,92.17,154.212,92.17,152.54z M156.972,62.467c-0.84-1.045-1.442-1.863-2.118-2.625
		c-8.104-9.132-18.301-15.587-30.32-19.828c-18.03-6.367-36.855-5.717-55.654-5.448c-0.105,0.001-0.205,0.309-0.392,0.609
		c5.567,5.048,11.075,10.205,16.824,15.129c1.248,1.067,3.342,1.799,5.068,1.84c8.134,0.19,16.277,0.059,24.417,0.092
		c10.155,0.041,20.158,1.055,29.607,4.665C148.566,58.492,152.541,60.487,156.972,62.467z M66.23,124.423
		c17.213,0,33.604,0.266,49.972-0.178c4.461-0.12,9.191-1.813,13.199-3.788c5.427-2.681,8.011-7.461,8.417-13.209
		c-0.644-0.132-1.079-0.298-1.515-0.298c-16.387-0.02-32.776-0.03-49.166,0.005c-0.85,0.001-1.955,0.191-2.51,0.69
		C78.623,113.029,72.705,118.493,66.23,124.423z M98.311,200.98c4.303-3.991,7.618-7.757,11.677-10.671
		c6.326-4.544,8.877-9.948,7.901-17.26c-0.651-4.883-0.124-9.894-0.124-14.92c-6.732,0-12.977,0-19.455,0
		C98.311,172.243,98.311,186.106,98.311,200.98z M82.072,77.648c0.327-0.081,0.652-0.162,0.979-0.245c0-1.823,0.02-3.646-0.005-5.47
		c-0.067-5.199,1.396-10.987-0.659-15.432c-2.104-4.552-7.645-7.804-11.713-11.595c-2.174-2.027-4.416-3.993-7.216-6.517
		c0,7.538-0.042,14.18,0.053,20.819c0.011,0.828,0.532,1.838,1.178,2.444C70.438,67.026,76.267,72.327,82.072,77.648z"/>
	<path fill="none" d="M92.17,152.54c0,1.672,0,2.906,0,4.134c0,14.481-0.054,28.961,0.051,43.438c0.018,2.418-0.668,3.245-3.46,3.19
		c-8.236-0.172-16.48-0.062-25.015-0.062c0-24.414,0-48.604,0-73.103c1.236-0.053,2.454-0.147,3.672-0.147
		c15.249-0.008,30.506,0.247,45.744-0.146c5.375-0.138,11.025-1.13,15.97-2.996c10.968-4.135,16.318-14.084,14.668-25.406
		c-1.591-10.897-9.714-18.644-22.496-19.942c-9.411-0.957-18.987-0.695-28.49-0.713c-2.978-0.004-4-0.63-3.878-3.453
		c0.246-5.722,0.085-11.458,0.069-17.187c-0.004-1.337,0.004-2.526,2.083-2.469c13.722,0.377,27.546-1.133,41.14,1.6
		c25.519,5.129,40.287,21.148,40.828,44.125c0.551,23.339-13.88,40.569-38.991,46.682c-10.097,2.456-20.387,2.578-30.719,2.465
		C99.81,152.508,96.271,152.54,92.17,152.54z"/>
	<path fill="none" d="M156.972,62.467c-4.431-1.979-8.404-3.975-12.566-5.564c-9.449-3.61-19.451-4.625-29.607-4.665
		c-8.141-0.032-16.283,0.099-24.417-0.091c-1.726-0.041-3.82-0.773-5.067-1.84c-5.749-4.925-11.257-10.081-16.824-15.13
		c0.187-0.3,0.286-0.608,0.391-0.609c18.798-0.269,37.624-0.918,55.654,5.448c12.019,4.242,22.216,10.696,30.32,19.828
		C155.529,60.604,156.132,61.422,156.972,62.467z"/>
	<path fill="none" d="M66.23,124.423c6.475-5.932,12.394-11.394,18.397-16.779c0.556-0.499,1.66-0.688,2.51-0.69
		c16.39-0.036,32.779-0.024,49.165-0.005c0.438,0,0.872,0.166,1.516,0.298c-0.405,5.749-2.991,10.529-8.416,13.209
		c-4.008,1.975-8.738,3.668-13.199,3.788C99.834,124.688,83.442,124.423,66.23,124.423z"/>
	<path fill="none" d="M98.311,200.98c0-14.873,0-28.737,0-42.851c6.479,0,12.723,0,19.456,0c0,5.026-0.528,10.038,0.123,14.92
		c0.977,7.312-1.575,12.716-7.9,17.26C105.929,193.224,102.614,196.989,98.311,200.98z"/>
	<path fill="none" d="M82.072,77.648c-5.805-5.321-11.634-10.622-17.382-15.995c-0.646-0.605-1.166-1.615-1.178-2.444
		c-0.095-6.639-0.053-13.28-0.053-20.819c2.8,2.524,5.042,4.49,7.216,6.517c4.068,3.791,9.608,7.042,11.713,11.595
		c2.054,4.445,0.591,10.233,0.659,15.432c0.025,1.823,0.005,3.647,0.005,5.47C82.724,77.485,82.399,77.567,82.072,77.648z"/>
</g>
<path d="M36.229,53.933"/>
</svg>
